<svg xmlns="http://www.w3.org/2000/svg" xmlns:xlink="http://www.w3.org/1999/xlink" width="3780" zoomAndPan="magnify" viewBox="0 0 2835 1417.499962" height="1890" preserveAspectRatio="xMidYMid meet" version="1.0"><defs><clipPath id="c740850420"><path d="M 1066.464844 880 L 1290 880 L 1290 1062 L 1066.464844 1062 Z M 1066.464844 880 " clip-rule="nonzero"/></clipPath><clipPath id="d3f1960fd8"><path d="M 1142.355469 763.371094 C 1141.738281 762.984375 1138.589844 763.722656 1137.941406 763.789062 C 1133.175781 764.273438 1136.316406 761.078125 1131.679688 762.28125 C 1126.777344 763.554688 1097.460938 770.613281 1084.601562 778.972656 C 1078.636719 782.84375 1069.328125 790.890625 1067.875 798.246094 C 1064.191406 816.867188 1071.523438 837.804688 1076.136719 855.597656 C 1079.808594 869.75 1081.6875 884.230469 1081.25 898.859375 C 1080.433594 926.347656 1080.308594 951.207031 1074.894531 978.082031 C 1072.21875 991.355469 1065.753906 1014.269531 1072.199219 1027.304688 C 1080.433594 1043.953125 1096.417969 1051.6875 1113.253906 1057.0625 C 1131.105469 1062.761719 1150.441406 1061.390625 1168.902344 1060.933594 C 1189.140625 1060.425781 1208.796875 1059.839844 1228.921875 1057.410156 C 1244.40625 1055.542969 1259.71875 1053.070312 1273.214844 1044.726562 C 1276.332031 1042.800781 1279.3125 1040.617188 1281.839844 1037.960938 C 1296.929688 1022.082031 1286.085938 1000.378906 1281.957031 982.273438 C 1278.601562 967.558594 1276.769531 952.300781 1275.597656 937.273438 C 1273.035156 904.398438 1272.789062 869.90625 1279.382812 837.449219 C 1282.367188 822.769531 1293.15625 798.773438 1283.480469 784.808594 C 1274.683594 772.109375 1255.132812 766.460938 1240.996094 762.855469 C 1224.433594 758.632812 1206.84375 758.316406 1189.851562 758.0625 C 1165.46875 757.699219 1141.203125 758.828125 1117.625 765.726562 C 1095.71875 772.140625 1071.449219 788.199219 1082.460938 814.226562 C 1084.578125 819.230469 1087.71875 823.78125 1091.085938 828.015625 " clip-rule="nonzero"/></clipPath><clipPath id="1929bbd8fa"><rect x="0" width="1333" y="0" height="1242"/></clipPath></defs><g transform="matrix(1, 0, 0, 1, 751, 88)"><g clip-path="url(#1929bbd8fa)"><path fill="#e0e0e0" d="M 1135.546875 723.757812 C 1134.765625 723.265625 1130.761719 724.203125 1129.941406 724.292969 C 1123.886719 724.902344 1127.875 720.84375 1121.988281 722.371094 C 1115.753906 723.988281 1078.503906 732.960938 1062.160156 743.582031 C 1054.585938 748.503906 1042.753906 758.726562 1040.90625 768.074219 C 1036.230469 791.738281 1045.542969 818.339844 1051.40625 840.945312 C 1056.074219 858.929688 1058.460938 877.332031 1057.90625 895.921875 C 1056.867188 930.851562 1056.710938 962.4375 1049.828125 996.589844 C 1046.429688 1013.453125 1038.214844 1042.570312 1046.402344 1059.136719 C 1056.867188 1080.292969 1077.179688 1090.121094 1098.574219 1096.949219 C 1121.253906 1104.191406 1145.828125 1102.449219 1169.285156 1101.867188 C 1195.003906 1101.222656 1219.976562 1100.476562 1245.550781 1097.390625 C 1265.226562 1095.015625 1284.683594 1091.871094 1301.832031 1081.273438 C 1305.789062 1078.828125 1309.578125 1076.050781 1312.792969 1072.671875 C 1331.964844 1052.5 1318.1875 1024.917969 1312.941406 1001.914062 C 1308.675781 983.214844 1306.347656 963.832031 1304.859375 944.734375 C 1301.605469 902.957031 1301.289062 859.132812 1309.671875 817.890625 C 1313.460938 799.234375 1327.171875 768.746094 1314.878906 750.996094 C 1303.699219 734.863281 1278.859375 727.683594 1260.890625 723.101562 C 1239.847656 717.734375 1217.492188 717.335938 1195.902344 717.011719 C 1164.921875 716.550781 1134.089844 717.984375 1104.128906 726.753906 C 1076.289062 734.898438 1045.453125 755.308594 1059.445312 788.378906 C 1062.132812 794.734375 1066.125 800.523438 1070.402344 805.898438 " fill-opacity="1" fill-rule="nonzero"/><path fill="#f0f0f0" d="M 1142.355469 763.371094 C 1141.738281 762.984375 1138.589844 763.722656 1137.941406 763.789062 C 1133.175781 764.273438 1136.316406 761.078125 1131.679688 762.28125 C 1126.777344 763.554688 1097.460938 770.613281 1084.601562 778.972656 C 1078.636719 782.84375 1069.328125 790.890625 1067.875 798.246094 C 1064.191406 816.867188 1071.523438 837.804688 1076.136719 855.597656 C 1079.808594 869.75 1081.6875 884.230469 1081.25 898.859375 C 1080.433594 926.347656 1080.308594 951.207031 1074.894531 978.082031 C 1072.21875 991.355469 1065.753906 1014.269531 1072.199219 1027.304688 C 1080.433594 1043.953125 1096.417969 1051.6875 1113.253906 1057.0625 C 1131.105469 1062.761719 1150.441406 1061.390625 1168.902344 1060.933594 C 1189.140625 1060.425781 1208.796875 1059.839844 1228.921875 1057.410156 C 1244.40625 1055.542969 1259.71875 1053.070312 1273.214844 1044.726562 C 1276.332031 1042.800781 1279.3125 1040.617188 1281.839844 1037.960938 C 1296.929688 1022.082031 1286.085938 1000.378906 1281.957031 982.273438 C 1278.601562 967.558594 1276.769531 952.300781 1275.597656 937.273438 C 1273.035156 904.398438 1272.789062 869.90625 1279.382812 837.449219 C 1282.367188 822.769531 1293.15625 798.773438 1283.480469 784.808594 C 1274.683594 772.109375 1255.132812 766.460938 1240.996094 762.855469 C 1224.433594 758.632812 1206.84375 758.316406 1189.851562 758.0625 C 1165.46875 757.699219 1141.203125 758.828125 1117.625 765.726562 C 1095.71875 772.140625 1071.449219 788.199219 1082.460938 814.226562 C 1084.578125 819.230469 1087.71875 823.78125 1091.085938 828.015625 " fill-opacity="1" fill-rule="nonzero"/><g clip-path="url(#c740850420)"><g clip-path="url(#d3f1960fd8)"><path fill="#c22b00" d="M 1067.886719 901.605469 C 1070.390625 898.949219 1072.277344 896.027344 1076.195312 894.023438 C 1101.664062 881.003906 1122.585938 907.285156 1147.660156 903.414062 C 1165.097656 900.71875 1176.894531 884.578125 1194.253906 881.015625 C 1214.570312 876.847656 1228.363281 891.082031 1246.539062 896.480469 C 1255.53125 899.152344 1265.992188 899.371094 1274.171875 894.210938 C 1276.886719 892.5 1284.171875 883.484375 1287.355469 883.484375 C 1287.433594 883.484375 1287.226562 885.835938 1287.222656 885.929688 C 1287.125 887.558594 1287.074219 889.1875 1287.019531 890.816406 C 1286.867188 895.769531 1286.886719 900.71875 1286.980469 905.671875 C 1287.074219 910.375 1287.195312 915.074219 1287.394531 919.773438 C 1287.734375 927.855469 1288.398438 935.910156 1289.183594 943.960938 C 1290.285156 955.28125 1291.484375 966.589844 1292.589844 977.910156 C 1294.386719 996.269531 1295.714844 1014.894531 1295.101562 1033.347656 C 1294.800781 1042.222656 1294.503906 1052.519531 1288.984375 1059.980469 C 1280.226562 1071.820312 1257.59375 1072.109375 1244.578125 1073.109375 C 1201.609375 1076.398438 1157.566406 1074.554688 1114.640625 1071.304688 C 1097.609375 1070.019531 1063.335938 1071.128906 1064.679688 1046.90625 " fill-opacity="1" fill-rule="nonzero"/></g></g><path fill="#e0e0e0" d="M 1155.789062 723.660156 C 1155.636719 723.644531 1156.558594 721.226562 1156.597656 721.140625 C 1157.824219 718.292969 1159.644531 715.726562 1161.679688 713.40625 C 1167.347656 706.945312 1175.613281 702.949219 1184.308594 704.691406 C 1195.601562 706.949219 1201.886719 716.457031 1203.554688 727.199219 C 1204.0625 730.496094 1204.316406 733.789062 1204.503906 737.113281 C 1204.539062 737.734375 1204.367188 739.996094 1204.964844 740.496094 C 1205.507812 740.945312 1207.675781 740.542969 1208.273438 740.511719 C 1211.761719 740.347656 1215.242188 740.179688 1218.726562 740.007812 C 1224.671875 739.714844 1230.621094 739.308594 1236.570312 739.144531 C 1242.078125 738.988281 1247.703125 740.828125 1247.859375 734.015625 C 1247.882812 732.96875 1247.84375 731.921875 1247.703125 730.878906 C 1245.328125 713.121094 1226.289062 700.605469 1211.28125 694.320312 C 1177.492188 680.183594 1131.679688 688.898438 1113.917969 723.5 C 1111.433594 728.335938 1109.539062 733.464844 1108.601562 738.828125 " fill-opacity="1" fill-rule="nonzero"/><path fill="#c22b00" d="M 1095.804688 1043.59375 C 1095.75 1043.5625 1096.5625 1044.527344 1096.695312 1044.671875 C 1097.441406 1045.492188 1098.144531 1046.355469 1098.8125 1047.238281 C 1100.648438 1049.652344 1102.058594 1052.363281 1103.554688 1054.992188 C 1106.730469 1060.574219 1108.472656 1066.191406 1110.539062 1072.203125 C 1111.15625 1073.984375 1111.296875 1077.753906 1113.464844 1078.320312 C 1115.078125 1078.738281 1120.773438 1079.75 1122.238281 1078.894531 C 1123.824219 1077.972656 1125.265625 1074.78125 1126.421875 1073.386719 C 1130.085938 1068.949219 1133.53125 1064.332031 1137.59375 1060.238281 C 1142.425781 1055.371094 1149.664062 1052.675781 1154.085938 1047.703125 " fill-opacity="1" fill-rule="nonzero"/><path fill="#c22b00" d="M 1260.667969 1043.59375 C 1260.722656 1043.5625 1259.90625 1044.527344 1259.773438 1044.671875 C 1259.03125 1045.492188 1258.328125 1046.355469 1257.65625 1047.238281 C 1255.824219 1049.652344 1254.414062 1052.363281 1252.917969 1054.992188 C 1249.742188 1060.574219 1248 1066.191406 1245.933594 1072.203125 C 1245.316406 1073.984375 1245.175781 1077.753906 1243.007812 1078.320312 C 1241.394531 1078.738281 1235.699219 1079.75 1234.230469 1078.894531 C 1232.648438 1077.972656 1231.203125 1074.78125 1230.050781 1073.386719 C 1226.386719 1068.949219 1222.941406 1064.332031 1218.878906 1060.238281 C 1214.042969 1055.371094 1206.804688 1052.675781 1202.386719 1047.703125 " fill-opacity="1" fill-rule="nonzero"/><path fill="#c22b00" d="M 1149.09375 1043.601562 L 1207.382812 1043.601562 L 1191.34375 1101.238281 C 1184.03125 1101.496094 1176.6875 1101.6875 1169.285156 1101.871094 C 1167.96875 1101.902344 1166.65625 1101.941406 1165.332031 1101.976562 Z M 1149.09375 1043.601562 " fill-opacity="1" fill-rule="evenodd"/><path fill="#da3e01" d="M 1094.097656 1018.589844 C 1093.765625 1017.902344 1094.792969 1019.941406 1095.171875 1020.597656 C 1095.882812 1021.835938 1096.707031 1023.003906 1097.632812 1024.085938 C 1100.480469 1027.421875 1104.054688 1030.183594 1107.65625 1032.640625 C 1118.273438 1039.875 1131.136719 1042.632812 1143.730469 1043.992188 C 1179.046875 1047.804688 1216.152344 1039.1875 1248.015625 1024.128906 C 1256.0625 1020.328125 1263.941406 1016.070312 1271.277344 1011.007812 C 1273.089844 1009.757812 1277.6875 1007.386719 1278.566406 1005.144531 C 1278.613281 1005.027344 1276.234375 1006.007812 1276.078125 1006.089844 C 1274.605469 1006.824219 1273.144531 1007.578125 1271.667969 1008.300781 C 1267.320312 1010.421875 1262.933594 1012.4375 1258.425781 1014.191406 C 1244.375 1019.664062 1229.664062 1023.171875 1214.78125 1025.4375 C 1182.457031 1030.367188 1148.371094 1031.460938 1116.335938 1023.890625 C 1108.699219 1022.089844 1101.28125 1019.625 1094.039062 1016.609375 C 1091.363281 1015.492188 1088.679688 1013.492188 1085.980469 1012.597656 C 1085.632812 1012.480469 1086.472656 1013.140625 1086.726562 1013.402344 C 1087.351562 1014.035156 1087.988281 1014.660156 1088.621094 1015.28125 C 1090.460938 1017.09375 1092.371094 1018.820312 1094.308594 1020.523438 C 1100.308594 1025.816406 1106.554688 1030.554688 1113.996094 1033.648438 C 1135.234375 1042.46875 1161.585938 1042.199219 1184.183594 1040.234375 " fill-opacity="1" fill-rule="nonzero"/><path fill="#c22b00" d="M 118.339844 36.9375 C 141.828125 1.960938 188.800781 1.960938 212.289062 19.449219 C 235.773438 36.9375 235.773438 71.914062 212.289062 106.890625 C 195.84375 133.121094 153.570312 159.355469 118.339844 176.84375 C 83.109375 159.355469 40.835938 133.121094 24.390625 106.890625 C 0.90625 71.914062 0.90625 36.9375 24.390625 19.449219 C 47.878906 1.960938 94.851562 1.960938 118.339844 36.9375 Z M 118.339844 36.9375 " fill-opacity="1" fill-rule="evenodd"/><path stroke-linecap="round" transform="matrix(3.401346, 0, 0, 3.401414, -7429.631648, -10048.26504)" fill="none" stroke-linejoin="round" d="M 2531.369721 3273.220017 C 2531.339861 3272.929467 2531.339861 3278.430396 2531.479971 3279.550105 C 2532.040411 3284.219578 2532.469928 3288.990112 2531.970356 3293.689444 C 2530.619788 3306.510397 2518.179861 3312.56027 2506.600118 3313.639784 C 2474.699836 3316.649791 2442.289647 3282.13979 2426.93038 3258.560445 C 2420.039726 3247.969721 2414.329671 3236.30982 2411.140447 3224.050444 C 2407.830636 3211.330551 2407.480361 3197.649432 2411.780129 3185.100654 C 2414.099982 3178.31005 2417.800263 3171.899573 2423.200239 3167.089993 C 2428.460105 3162.419372 2443.060251 3157.579933 2441.52019 3169.70035 C 2440.730062 3175.939712 2436.850624 3179.79955 2432.689818 3183.960273 C 2432.239628 3184.419641 2433.800361 3183.299932 2434.389512 3183.040389 C 2435.570111 3182.530491 2436.789757 3182.129693 2438.030074 3181.819619 C 2441.490331 3180.969789 2445.299714 3180.340455 2448.810502 3181.250003 C 2457.360655 3183.459562 2460.760044 3191.679948 2454.28972 3198.430357 C 2441.809598 3211.430464 2417.369598 3208.960214 2402.140104 3203.779694 C 2364.079579 3190.830118 2330.069609 3156.129479 2322.370452 3116.259805 C 2317.049719 3088.719561 2324.450281 3042.129337 2360.08989 3039.719953 C 2368.599848 3039.140002 2382.42939 3043.840482 2380.76989 3054.719458 C 2379.990098 3059.850596 2375.879823 3063.999835 2371.720165 3066.72044 C 2369.610477 3068.090505 2367.35953 3069.650058 2364.979958 3070.52056 C 2364.880043 3070.559606 2364.620495 3070.650331 2364.680214 3070.569942 C 2366.959872 3067.379633 2374.840483 3066.130153 2378.239872 3065.560537 C 2397.109927 3062.379415 2412.340569 3079.060206 2399.009451 3095.899479 C 2396.26008 3099.380338 2392.729768 3102.269761 2388.860666 3104.419602 C 2383.49055 3107.389414 2377.559994 3109.510545 2371.450281 3110.239791 C 2316.28945 3116.799562 2298.670049 3072.050254 2277.699493 3032.240298 C 2267.389926 3012.689607 2254.299981 2989.650019 2231.100299 2984.269674 " stroke="#c22b00" stroke-width="3.3" stroke-opacity="1" stroke-miterlimit="1.5"/></g></g></svg>