<svg xmlns="http://www.w3.org/2000/svg" xmlns:xlink="http://www.w3.org/1999/xlink" width="128" zoomAndPan="magnify" viewBox="0 0 96 95.999999" height="128" preserveAspectRatio="xMidYMid meet" version="1.0"><path fill="#e22e26" d="M 19.222656 62.164062 C 18.273438 59.21875 17.761719 56.082031 17.761719 52.820312 C 17.761719 52.820312 17.179688 41.921875 25.628906 28.789062 C 34.074219 15.65625 41.328125 9.171875 48.265625 4.664062 C 55.199219 0.15625 57.464844 0.0429688 57.195312 1.625 C 56.929688 3.203125 56.390625 9.519531 62.007812 17.527344 C 67.023438 24.679688 73.617188 33.335938 76.460938 41.703125 C 76.796875 42.703125 77.085938 43.699219 77.308594 44.6875 C 78.023438 47.277344 78.40625 50.003906 78.40625 52.820312 C 78.40625 58.679688 76.75 64.15625 73.878906 68.800781 C 68.53125 77.453125 58.972656 83.21875 48.082031 83.21875 C 34.597656 83.21875 23.15625 74.375 19.222656 62.164062 Z M 19.222656 62.164062 " fill-opacity="1" fill-rule="evenodd"/><path fill="#4b203c" d="M 76.460938 41.703125 C 76.800781 42.703125 77.085938 43.699219 77.308594 44.6875 C 78.023438 47.277344 78.40625 50.003906 78.40625 52.820312 C 78.40625 58.679688 76.75 64.15625 73.882812 68.800781 C 68.53125 77.453125 58.976562 83.21875 48.085938 83.21875 C 34.597656 83.21875 23.15625 74.375 19.222656 62.164062 C 21.605469 64.992188 27.585938 70.644531 37.679688 71.15625 C 51.195312 71.847656 60.769531 69.058594 68.242188 62.132812 C 74.160156 56.644531 76.253906 48.175781 76.460938 41.703125 Z M 76.460938 41.703125 " fill-opacity="0.353" fill-rule="evenodd"/><path fill="#881419" d="M 36.761719 28.6875 C 40.199219 27.0625 44.035156 26.15625 48.082031 26.15625 C 51.648438 26.15625 55.050781 26.859375 58.160156 28.136719 C 67.851562 32.121094 74.679688 41.675781 74.679688 52.816406 C 74.679688 57.960938 73.226562 62.761719 70.707031 66.835938 C 66.019531 74.421875 57.636719 79.480469 48.082031 79.480469 C 33.402344 79.480469 21.484375 67.53125 21.484375 52.816406 C 21.484375 47.992188 22.765625 43.460938 25.007812 39.554688 C 27.71875 34.832031 31.828125 31.023438 36.761719 28.6875 Z M 36.761719 28.6875 " fill-opacity="0.498" fill-rule="evenodd"/><path fill="#881419" d="M 50.640625 33.730469 C 50.226562 33.308594 50.277344 32.585938 50.855469 32.523438 C 51.4375 32.457031 51.96875 32.476562 52.378906 32.617188 C 52.792969 32.757812 53.210938 32.257812 53.523438 32.652344 C 53.84375 33.042969 53.378906 34.085938 53.019531 34.574219 C 52.65625 35.0625 52.007812 35.042969 51.496094 34.917969 C 50.980469 34.800781 51.050781 34.15625 50.640625 33.730469 Z M 43.019531 30.898438 C 42.527344 30.8125 42.875 30.15625 42.785156 29.65625 C 42.699219 29.15625 43.070312 28.777344 43.910156 28.628906 C 44.746094 28.484375 44.816406 27.9375 45.363281 27.890625 C 45.910156 27.839844 46.488281 28.503906 46.878906 28.566406 C 47.277344 28.628906 48.394531 28.3125 48.917969 28.554688 C 49.445312 28.792969 49.347656 29.789062 49.992188 29.976562 C 50.632812 30.160156 51.292969 29.78125 51.273438 30.429688 C 51.265625 31.074219 49.714844 31.800781 49.398438 32.132812 C 49.078125 32.46875 49.410156 32.875 49.1875 33.410156 C 48.972656 33.945312 47.996094 34.21875 47.371094 34.265625 C 46.753906 34.308594 45.617188 34.417969 45.304688 33.847656 C 44.984375 33.273438 45.609375 32.6875 45.417969 32.1875 C 45.226562 31.691406 44.917969 31.28125 44.402344 31.183594 C 43.890625 31.085938 43.328125 30.953125 43.019531 30.898438 Z M 42.433594 34.0625 C 42.0625 33.648438 41.925781 33.292969 42.425781 33.011719 C 42.925781 32.730469 42.726562 31.921875 43.199219 31.875 C 43.664062 31.828125 44.042969 32.632812 44.082031 33.261719 C 44.125 33.890625 44.03125 33.882812 43.605469 34.082031 C 43.183594 34.285156 42.800781 34.476562 42.433594 34.0625 Z M 38.699219 46.636719 C 38.378906 46.460938 38.296875 45.699219 38.742188 45.449219 C 39.191406 45.203125 39.25 44.609375 39.757812 44.652344 C 40.265625 44.691406 41 45.476562 40.847656 45.957031 C 40.691406 46.4375 39.882812 47.292969 38.699219 46.636719 Z M 37.828125 49.859375 C 37.355469 49.390625 37.265625 49.214844 37.40625 48.640625 C 37.550781 48.066406 37.210938 47.597656 37.640625 47.582031 C 38.070312 47.570312 38.566406 47.953125 38.929688 47.875 C 39.289062 47.796875 39.8125 47.382812 40.152344 47.78125 C 40.492188 48.179688 40.839844 48.824219 40.695312 49.367188 C 40.546875 49.910156 39.796875 49.917969 39.394531 50.054688 C 38.992188 50.195312 38.464844 50.488281 37.828125 49.859375 Z M 36.761719 28.6875 C 37.261719 29.589844 36.609375 31.46875 38.121094 30.960938 C 38.378906 30.875 40.199219 29.230469 41.507812 31.269531 C 41.679688 31.53125 41.882812 32.847656 40.476562 32.835938 C 38.5625 32.820312 38.296875 33.128906 38.171875 35.238281 C 38.113281 36.203125 41.347656 35.941406 41.570312 35.753906 C 43.144531 34.457031 43.777344 37.699219 44.011719 37.894531 C 45.175781 38.855469 44.945312 39.03125 45.0625 40.550781 C 45.1875 42.214844 42.585938 40.113281 41.167969 41.8125 C 40.921875 42.105469 40.925781 42.082031 40.679688 42.363281 C 38.894531 41.867188 38.539062 42.164062 38.261719 43.992188 C 38.15625 44.691406 34.949219 43.609375 36.160156 46.628906 C 36.90625 48.492188 35.292969 48.933594 34.113281 47.316406 C 33.628906 46.652344 33.574219 46.136719 31.605469 46.859375 C 31.199219 47.007812 28.699219 49.78125 32.382812 49.816406 C 33.378906 49.828125 32.308594 51.921875 34.875 51.832031 C 36.253906 51.78125 36.273438 52.066406 37.578125 51.660156 C 38.210938 51.464844 39.066406 51.367188 40.148438 51.40625 C 41.4375 51.449219 41.601562 52.3125 42.484375 53.214844 C 43.152344 53.898438 44.582031 52.96875 45.300781 54.019531 C 46.632812 55.96875 46.839844 56.332031 49.707031 56.28125 C 50.324219 56.269531 52.042969 57.882812 51.257812 59.355469 C 50.234375 61.28125 50.226562 61.257812 49.5 63.300781 C 48.914062 64.945312 46.949219 64.546875 45.769531 66.613281 C 45.550781 67.003906 45.0625 68.25 45 68.398438 C 44.976562 68.445312 43.789062 69.648438 43.273438 69.792969 C 43.097656 69.839844 42.917969 69.875 42.746094 69.929688 C 42.605469 69.972656 42.082031 70.132812 42.324219 71.703125 C 42.496094 72.796875 44.292969 75.039062 43.511719 74.980469 C 42.679688 74.921875 43.027344 74.15625 41.113281 73.628906 C 40.5 73.457031 40.527344 73.378906 39.25 71.710938 C 38.613281 70.886719 38.871094 70.195312 38.589844 69.695312 C 37.71875 68.171875 37.953125 67.683594 38.160156 66.296875 C 38.132812 65.085938 38.203125 63.609375 36.214844 63.003906 C 33.226562 62.09375 33.304688 61.410156 33.773438 58.320312 C 33.941406 57.207031 32.472656 57.253906 32.890625 56.417969 C 33.097656 56.007812 34.207031 54.792969 32.949219 52.839844 C 32.289062 51.816406 30.054688 53.039062 29.53125 51.097656 C 29.097656 49.507812 28.59375 49.875 27.460938 48.683594 C 26.488281 47.65625 26.445312 47.75 25.269531 47 C 23.761719 46.035156 25.628906 45.332031 24.765625 43.765625 C 24.125 42.609375 26.308594 41.21875 25.003906 39.558594 C 27.71875 34.832031 31.828125 31.023438 36.761719 28.6875 Z M 58.164062 28.140625 C 67.851562 32.125 74.679688 41.679688 74.679688 52.820312 C 74.679688 57.960938 73.226562 62.765625 70.710938 66.835938 C 70.441406 65.855469 70.078125 64.910156 68.996094 63.191406 C 68.527344 62.445312 69.464844 61.359375 69.515625 60.363281 C 69.613281 58.457031 70.738281 58.378906 69.734375 56.734375 C 69.082031 55.664062 71.273438 54.023438 69.230469 53.71875 C 68.710938 53.644531 66.140625 57.269531 63.863281 55.328125 C 60.269531 52.269531 61.96875 50.496094 61.734375 49.824219 C 61.15625 48.128906 61.363281 48.105469 61.652344 46.355469 C 62.125 43.558594 61.90625 41.835938 66.480469 42.789062 C 67.253906 40.542969 67.949219 41.324219 69.089844 41.003906 C 70.558594 40.59375 67.925781 37.976562 67.683594 37.898438 C 66.75 37.613281 66.035156 38.90625 65.371094 38.390625 C 63.105469 36.632812 63.675781 40.597656 62.226562 40.03125 C 59.769531 39.074219 59.617188 38.679688 60.046875 36.226562 C 60.320312 34.671875 57.492188 34.191406 57.808594 33.085938 C 58.164062 31.867188 58.175781 31.84375 57.726562 30.652344 C 57.480469 30 57.746094 28.9375 58.164062 28.140625 Z M 58.164062 28.140625 " fill-opacity="1" fill-rule="evenodd"/><path fill="#fba58d" d="M 41.664062 19.851562 C 40.179688 18.765625 40.792969 15.328125 43.882812 14.125 C 46.96875 12.925781 49.101562 15.296875 47.925781 17.535156 C 46.75 19.777344 44.347656 21.8125 41.664062 19.851562 Z M 25.375 50.902344 C 22.957031 50.414062 22.214844 43.203125 24.910156 36.855469 C 27.605469 30.507812 32.714844 23.730469 37.195312 21.796875 C 41.167969 20.078125 44.429688 22.597656 41.269531 28.332031 C 38.558594 33.246094 34.707031 35.691406 31.855469 41.660156 C 29.304688 47.007812 28.757812 51.582031 25.375 50.902344 Z M 25.375 50.902344 " fill-opacity="0.348" fill-rule="evenodd"/><path fill="#4b203c" d="M 74.664062 51.792969 C 74.675781 52.132812 74.679688 52.476562 74.679688 52.820312 C 74.679688 57.960938 73.226562 62.765625 70.710938 66.835938 C 66.019531 74.425781 57.636719 79.484375 48.085938 79.484375 C 38.96875 79.484375 30.914062 74.875 26.121094 67.855469 C 29.101562 69.539062 32.933594 70.914062 37.679688 71.15625 C 51.195312 71.847656 60.769531 69.058594 68.242188 62.132812 C 71.335938 59.265625 73.382812 55.582031 74.664062 51.792969 Z M 74.664062 51.792969 " fill-opacity="0.547" fill-rule="evenodd"/><path fill="#4b203c" d="M 74.664062 51.792969 C 74.675781 52.132812 74.679688 52.476562 74.679688 52.820312 C 74.679688 57.960938 73.226562 62.765625 70.710938 66.835938 C 70.441406 65.855469 70.078125 64.910156 68.996094 63.191406 C 68.621094 62.59375 69.148438 61.785156 69.394531 60.972656 C 71.855469 58.304688 73.550781 55.089844 74.664062 51.792969 Z M 42.277344 71.257812 C 42.285156 71.390625 42.304688 71.539062 42.328125 71.699219 C 42.496094 72.792969 44.296875 75.035156 43.515625 74.976562 C 42.683594 74.917969 43.027344 74.152344 41.113281 73.625 C 40.503906 73.453125 40.53125 73.375 39.25 71.707031 C 39.121094 71.539062 39.027344 71.375 38.957031 71.214844 C 40.09375 71.253906 41.199219 71.269531 42.277344 71.257812 Z M 42.277344 71.257812 " fill-opacity="1" fill-rule="evenodd"/><path fill="#fba58d" d="M 22.894531 75.277344 C 22.894531 75.277344 20.390625 75.722656 18.128906 73.695312 C 15.863281 71.667969 14.546875 69.53125 15.578125 67.675781 C 16.613281 65.824219 18.960938 65.488281 21.453125 66.316406 C 23.945312 67.144531 24.871094 68.363281 25.347656 70.515625 C 25.824219 72.667969 25.5625 73.300781 25.5625 73.300781 C 25.5625 73.300781 27.484375 72.347656 29.789062 70.96875 C 32.097656 69.589844 35.351562 67.515625 38.371094 68.332031 C 41.390625 69.144531 41.898438 72.074219 40.96875 73.589844 C 40.96875 73.589844 43.476562 71.585938 45.816406 71.640625 C 48.15625 71.699219 48.976562 73.09375 48.976562 73.09375 C 48.976562 73.09375 48.792969 71.609375 50.679688 70.457031 C 52.558594 69.304688 54.992188 69.648438 57.328125 72.089844 C 57.328125 72.089844 57.148438 69.484375 59.664062 68.199219 C 62.183594 66.914062 64.347656 67.96875 66.417969 69.546875 C 68.488281 71.128906 70.113281 72.445312 70.113281 72.445312 C 70.113281 72.445312 69.984375 70.171875 71.1875 68.171875 C 72.394531 66.175781 74.929688 65.289062 77.023438 65.320312 C 79.117188 65.355469 81.296875 66.964844 80.375 69.5 C 79.457031 72.035156 75.832031 75.222656 73.320312 74.785156 C 73.320312 74.785156 75.988281 76.726562 76.460938 78.328125 C 76.933594 79.929688 75.867188 81.503906 74.820312 83.113281 C 73.777344 84.71875 72.300781 85.933594 69.214844 84.714844 C 69.214844 84.714844 69.664062 85.789062 68.300781 87.472656 C 66.9375 89.160156 65.40625 90.128906 64.265625 90.296875 C 63.132812 90.464844 61.945312 90.09375 61.207031 89.648438 C 61.207031 89.648438 61.050781 91.769531 59.488281 93.066406 C 57.925781 94.363281 55.664062 93.96875 54.773438 93.675781 C 53.886719 93.386719 52.542969 91.917969 52.542969 91.917969 C 52.542969 91.917969 50.9375 93.933594 49.585938 94.949219 C 48.230469 95.964844 47.007812 95.753906 45.726562 95.414062 C 44.445312 95.074219 43.53125 93.535156 43.53125 93.535156 C 43.53125 93.535156 41.738281 95.082031 39.703125 95.140625 C 37.667969 95.199219 36.0625 93.640625 35.542969 92.859375 C 35.023438 92.082031 35.085938 90.265625 35.085938 90.265625 C 35.085938 90.265625 32.265625 90.84375 30.742188 90.273438 C 29.21875 89.699219 28.261719 88.066406 27.875 87.207031 C 27.488281 86.347656 27.699219 84.789062 27.699219 84.789062 C 27.699219 84.789062 25.722656 85.304688 23.9375 84.570312 C 22.15625 83.832031 20.902344 81.957031 20.761719 80.710938 C 20.617188 79.464844 20.660156 78.597656 21.234375 77.515625 C 21.816406 76.441406 22.894531 75.277344 22.894531 75.277344 Z M 22.894531 75.277344 " fill-opacity="1" fill-rule="evenodd"/><path fill="#de6d52" d="M 44.230469 86.070312 C 44.171875 86 44.179688 85.898438 44.25 85.84375 C 44.320312 85.785156 44.425781 85.792969 44.480469 85.863281 C 44.480469 85.863281 45.847656 87.503906 47.078125 88.3125 C 47.15625 88.363281 47.175781 88.464844 47.125 88.539062 C 47.074219 88.617188 46.976562 88.636719 46.898438 88.585938 C 45.636719 87.753906 44.230469 86.070312 44.230469 86.070312 Z M 43.707031 87.339844 C 43.660156 87.257812 43.691406 87.160156 43.773438 87.117188 C 43.851562 87.074219 43.949219 87.101562 43.992188 87.183594 C 43.992188 87.183594 44.5625 88.222656 46.085938 88.664062 C 46.171875 88.691406 46.21875 88.78125 46.195312 88.867188 C 46.171875 88.957031 46.078125 89.003906 45.992188 88.980469 C 44.320312 88.492188 43.707031 87.339844 43.707031 87.339844 Z M 37.84375 81.882812 C 37.8125 81.800781 37.851562 81.703125 37.933594 81.667969 C 38.015625 81.632812 38.113281 81.671875 38.148438 81.753906 C 38.148438 81.753906 38.863281 83.484375 40.441406 84.070312 C 40.527344 84.105469 40.570312 84.195312 40.539062 84.28125 C 40.507812 84.367188 40.414062 84.410156 40.328125 84.378906 C 38.621094 83.746094 37.84375 81.882812 37.84375 81.882812 Z M 38.671875 80.746094 C 38.617188 80.671875 38.636719 80.570312 38.710938 80.519531 C 38.785156 80.46875 38.886719 80.484375 38.9375 80.558594 C 38.9375 80.558594 39.664062 81.601562 40.894531 82.628906 C 40.964844 82.683594 40.972656 82.789062 40.914062 82.855469 C 40.855469 82.925781 40.753906 82.9375 40.683594 82.878906 C 39.417969 81.824219 38.671875 80.746094 38.671875 80.746094 Z M 58.726562 81.84375 C 58.640625 81.875 58.550781 81.828125 58.515625 81.742188 C 58.488281 81.660156 58.535156 81.566406 58.621094 81.535156 C 58.621094 81.535156 60.296875 80.96875 60.914062 79.960938 C 60.960938 79.882812 61.0625 79.859375 61.136719 79.90625 C 61.214844 79.953125 61.238281 80.054688 61.191406 80.132812 C 60.527344 81.21875 58.726562 81.84375 58.726562 81.84375 Z M 57.089844 81.398438 C 57.011719 81.433594 56.910156 81.394531 56.875 81.316406 C 56.84375 81.230469 56.878906 81.132812 56.960938 81.101562 C 56.960938 81.101562 58.300781 80.507812 59.453125 79.464844 C 59.519531 79.40625 59.621094 79.410156 59.683594 79.476562 C 59.742188 79.542969 59.738281 79.648438 59.671875 79.710938 C 58.480469 80.789062 57.089844 81.398438 57.089844 81.398438 Z M 66.128906 77.773438 C 66.042969 77.792969 65.960938 77.734375 65.9375 77.648438 C 65.921875 77.558594 65.980469 77.472656 66.070312 77.457031 C 66.070312 77.457031 67.503906 77.175781 68.117188 76.421875 C 68.175781 76.351562 68.277344 76.339844 68.347656 76.398438 C 68.417969 76.453125 68.429688 76.558594 68.371094 76.628906 C 67.691406 77.453125 66.128906 77.773438 66.128906 77.773438 Z M 64.484375 72.1875 C 64.53125 72.109375 64.628906 72.078125 64.703125 72.121094 C 64.785156 72.167969 64.816406 72.265625 64.769531 72.34375 C 64.769531 72.34375 64 73.738281 62.96875 74.308594 C 62.355469 74.644531 61.628906 74.648438 60.902344 74.394531 C 59.851562 74.023438 58.792969 73.105469 58.097656 71.902344 C 58.046875 71.824219 58.078125 71.722656 58.15625 71.679688 C 58.234375 71.632812 58.335938 71.660156 58.378906 71.738281 C 59.03125 72.867188 60.023438 73.734375 61.011719 74.082031 C 61.644531 74.304688 62.277344 74.3125 62.808594 74.019531 C 63.773438 73.492188 64.484375 72.1875 64.484375 72.1875 Z M 58.96875 70.613281 C 58.917969 70.683594 58.8125 70.695312 58.742188 70.640625 C 58.671875 70.582031 58.660156 70.480469 58.714844 70.410156 C 58.714844 70.410156 60.09375 68.6875 61.492188 68.261719 C 61.710938 68.195312 61.949219 68.210938 62.191406 68.289062 C 62.527344 68.398438 62.878906 68.632812 63.210938 68.9375 C 64.027344 69.679688 64.734375 70.832031 64.835938 71.417969 C 64.851562 71.507812 64.789062 71.59375 64.703125 71.609375 C 64.617188 71.625 64.527344 71.5625 64.511719 71.476562 C 64.417969 70.933594 63.75 69.871094 62.992188 69.183594 C 62.746094 68.957031 62.484375 68.769531 62.230469 68.65625 C 62.007812 68.558594 61.785156 68.515625 61.585938 68.574219 C 60.269531 68.976562 58.96875 70.613281 58.96875 70.613281 Z M 49.609375 73.28125 C 49.558594 73.351562 49.457031 73.371094 49.382812 73.316406 C 49.308594 73.261719 49.296875 73.160156 49.351562 73.085938 C 49.351562 73.085938 50.789062 71.128906 52.421875 70.523438 C 52.503906 70.492188 52.601562 70.535156 52.628906 70.621094 C 52.660156 70.707031 52.617188 70.796875 52.535156 70.832031 C 50.976562 71.40625 49.609375 73.28125 49.609375 73.28125 Z M 53.375 76.910156 C 53.292969 76.941406 53.191406 76.902344 53.160156 76.820312 C 53.125 76.734375 53.164062 76.640625 53.246094 76.605469 C 53.246094 76.605469 53.804688 76.375 54.316406 75.929688 C 54.640625 75.640625 54.953125 75.261719 55.066406 74.796875 C 55.175781 74.324219 55.089844 73.757812 54.890625 73.199219 C 54.589844 72.34375 54.015625 71.507812 53.429688 71.058594 C 53.359375 71.003906 53.34375 70.902344 53.398438 70.828125 C 53.453125 70.757812 53.554688 70.742188 53.628906 70.796875 C 54.253906 71.28125 54.875 72.171875 55.199219 73.085938 C 55.421875 73.710938 55.507812 74.34375 55.378906 74.871094 C 55.253906 75.40625 54.90625 75.84375 54.527344 76.175781 C 53.976562 76.65625 53.375 76.910156 53.375 76.910156 Z M 50.28125 75.742188 C 50.21875 75.675781 50.226562 75.574219 50.296875 75.515625 C 50.363281 75.457031 50.46875 75.460938 50.527344 75.53125 C 50.527344 75.53125 50.894531 75.957031 51.417969 76.308594 C 51.753906 76.535156 52.152344 76.738281 52.558594 76.761719 C 52.648438 76.765625 52.71875 76.84375 52.714844 76.933594 C 52.710938 77.023438 52.632812 77.09375 52.546875 77.085938 C 52.078125 77.0625 51.617188 76.839844 51.234375 76.578125 C 50.671875 76.203125 50.28125 75.742188 50.28125 75.742188 Z M 50.835938 90.613281 C 50.765625 90.558594 50.753906 90.453125 50.808594 90.382812 C 50.863281 90.308594 50.964844 90.296875 51.035156 90.351562 C 51.035156 90.351562 52.144531 91.207031 53.097656 90.128906 C 53.160156 90.0625 53.261719 90.054688 53.332031 90.117188 C 53.394531 90.175781 53.40625 90.28125 53.34375 90.347656 C 52.183594 91.652344 50.835938 90.613281 50.835938 90.613281 Z M 50.515625 89.859375 C 50.578125 89.925781 50.570312 90.03125 50.503906 90.089844 C 50.441406 90.152344 50.335938 90.144531 50.277344 90.078125 C 50.277344 90.078125 49.296875 88.980469 50.085938 87.960938 C 50.492188 87.4375 50.84375 87.074219 51.148438 86.886719 C 51.386719 86.738281 51.601562 86.683594 51.796875 86.71875 C 52.21875 86.792969 53.195312 87.414062 53.84375 88.386719 C 53.890625 88.460938 53.871094 88.566406 53.796875 88.617188 C 53.71875 88.667969 53.617188 88.644531 53.570312 88.570312 C 52.984375 87.691406 52.125 87.109375 51.738281 87.042969 C 51.613281 87.023438 51.472656 87.066406 51.324219 87.164062 C 51.035156 87.339844 50.71875 87.679688 50.339844 88.164062 C 49.710938 88.976562 50.515625 89.859375 50.515625 89.859375 Z M 50.667969 83.992188 C 50.757812 83.980469 50.839844 84.042969 50.851562 84.136719 C 50.859375 84.226562 50.800781 84.308594 50.710938 84.316406 C 50.710938 84.316406 49.972656 84.402344 49.1875 84.234375 C 48.652344 84.117188 48.09375 83.882812 47.726562 83.429688 C 46.8125 82.308594 47.136719 80.636719 47.703125 79.8125 C 48.039062 79.324219 48.492188 78.8125 48.957031 78.507812 C 49.289062 78.28125 49.632812 78.164062 49.9375 78.210938 C 50.074219 78.234375 50.347656 78.378906 50.675781 78.621094 C 51.390625 79.140625 52.421875 80.085938 52.957031 80.871094 C 53.003906 80.945312 52.984375 81.046875 52.910156 81.101562 C 52.835938 81.152344 52.734375 81.132812 52.6875 81.054688 C 52.167969 80.296875 51.171875 79.386719 50.484375 78.882812 C 50.214844 78.6875 50 78.550781 49.890625 78.535156 C 49.65625 78.5 49.398438 78.605469 49.136719 78.777344 C 48.710938 79.066406 48.285156 79.542969 47.972656 79.996094 C 47.46875 80.734375 47.167969 82.222656 47.980469 83.222656 C 48.300781 83.617188 48.789062 83.816406 49.257812 83.914062 C 49.988281 84.070312 50.667969 83.992188 50.667969 83.992188 Z M 45.941406 79.160156 C 46.023438 79.195312 46.066406 79.289062 46.03125 79.371094 C 45.996094 79.457031 45.898438 79.496094 45.820312 79.460938 C 45.820312 79.460938 44.019531 78.722656 43.339844 77.71875 C 42.640625 76.691406 42.515625 75.53125 43.457031 74.3125 C 44.390625 73.105469 45.304688 72.710938 46.003906 72.699219 C 46.226562 72.695312 46.574219 72.875 46.957031 73.199219 C 47.773438 73.886719 48.832031 75.214844 49.351562 76.367188 C 49.390625 76.449219 49.351562 76.546875 49.273438 76.582031 C 49.191406 76.621094 49.097656 76.585938 49.054688 76.503906 C 48.554688 75.394531 47.539062 74.113281 46.746094 73.445312 C 46.554688 73.285156 46.375 73.160156 46.222656 73.085938 C 46.140625 73.046875 46.066406 73.023438 46.011719 73.023438 C 45.378906 73.035156 44.558594 73.417969 43.714844 74.511719 C 42.878906 75.59375 42.992188 76.625 43.609375 77.535156 C 44.246094 78.476562 45.941406 79.160156 45.941406 79.160156 Z M 35.035156 71.25 C 34.976562 71.316406 34.871094 71.324219 34.804688 71.261719 C 34.738281 71.203125 34.734375 71.097656 34.792969 71.03125 C 34.792969 71.03125 35.652344 70.09375 36.679688 69.554688 C 37.128906 69.324219 37.453125 69.261719 37.742188 69.320312 C 38.15625 69.398438 38.5 69.746094 39.035156 70.285156 C 39.632812 70.886719 40.160156 71.578125 40.414062 72.09375 C 40.535156 72.339844 40.59375 72.554688 40.589844 72.710938 C 40.582031 72.867188 40.445312 73.109375 40.234375 73.363281 C 39.808594 73.886719 39.109375 74.496094 39.109375 74.496094 C 39.039062 74.554688 38.9375 74.550781 38.875 74.484375 C 38.816406 74.414062 38.824219 74.3125 38.890625 74.253906 C 38.890625 74.253906 39.570312 73.660156 39.980469 73.160156 C 40.082031 73.035156 40.164062 72.921875 40.214844 72.820312 C 40.242188 72.773438 40.257812 72.730469 40.261719 72.695312 C 40.269531 72.539062 40.164062 72.304688 40.003906 72.027344 C 39.734375 71.566406 39.292969 71.011719 38.800781 70.515625 C 38.554688 70.269531 38.355469 70.0625 38.164062 69.90625 C 38 69.769531 37.847656 69.675781 37.675781 69.640625 C 37.445312 69.597656 37.1875 69.664062 36.828125 69.847656 C 35.851562 70.355469 35.035156 71.25 35.035156 71.25 Z M 37.296875 75.832031 C 37.386719 75.84375 37.453125 75.925781 37.4375 76.015625 C 37.425781 76.105469 37.34375 76.167969 37.257812 76.15625 C 37.257812 76.15625 36.027344 75.996094 35.171875 75.042969 C 34.664062 74.480469 34.257812 73.742188 34.113281 73.074219 C 34.007812 72.597656 34.039062 72.15625 34.238281 71.820312 C 34.285156 71.742188 34.386719 71.714844 34.460938 71.761719 C 34.539062 71.808594 34.566406 71.90625 34.519531 71.984375 C 34.359375 72.257812 34.347656 72.617188 34.429688 73.003906 C 34.566406 73.625 34.945312 74.304688 35.414062 74.828125 C 36.1875 75.6875 37.296875 75.832031 37.296875 75.832031 Z M 30.519531 76.109375 C 30.5 76.019531 30.558594 75.933594 30.644531 75.914062 C 30.734375 75.894531 30.820312 75.953125 30.839844 76.042969 C 30.839844 76.042969 31.117188 77.398438 32.28125 78.277344 C 32.355469 78.332031 32.371094 78.433594 32.316406 78.507812 C 32.261719 78.582031 32.15625 78.597656 32.085938 78.539062 C 30.820312 77.585938 30.519531 76.109375 30.519531 76.109375 Z M 70.015625 72.652344 C 69.980469 72.523438 70.058594 72.386719 70.1875 72.347656 C 70.316406 72.3125 70.449219 72.386719 70.488281 72.519531 C 70.488281 72.519531 70.878906 73.800781 73.28125 74.554688 C 73.410156 74.59375 73.484375 74.730469 73.441406 74.859375 C 73.398438 74.988281 73.261719 75.0625 73.136719 75.023438 C 70.414062 74.167969 70.015625 72.652344 70.015625 72.652344 Z M 57.222656 72.421875 C 57.171875 72.292969 57.238281 72.152344 57.363281 72.105469 C 57.492188 72.058594 57.628906 72.121094 57.679688 72.25 C 57.679688 72.25 57.96875 73.003906 59.8125 75.035156 C 61.707031 77.121094 63.886719 78.996094 65.585938 80.777344 C 67.269531 82.550781 68.566406 83.847656 69.214844 84.347656 C 69.320312 84.433594 69.335938 84.585938 69.253906 84.691406 C 69.171875 84.800781 69.019531 84.820312 68.914062 84.734375 C 68.257812 84.230469 66.941406 82.917969 65.230469 81.117188 C 63.53125 79.332031 61.347656 77.453125 59.449219 75.363281 C 57.511719 73.226562 57.222656 72.421875 57.222656 72.421875 Z M 28.0625 84.867188 C 27.945312 84.933594 27.796875 84.890625 27.730469 84.773438 C 27.664062 84.652344 27.707031 84.503906 27.824219 84.4375 C 27.824219 84.4375 28.5 84.058594 30.191406 82.488281 C 31.917969 80.890625 34.089844 79.113281 36.128906 77.449219 C 38.160156 75.792969 39.859375 74.296875 40.703125 73.5 C 40.800781 73.40625 40.957031 73.410156 41.046875 73.511719 C 41.140625 73.609375 41.136719 73.765625 41.039062 73.859375 C 40.191406 74.65625 38.480469 76.164062 36.4375 77.832031 C 34.40625 79.488281 32.246094 81.253906 30.523438 82.851562 C 28.765625 84.476562 28.0625 84.867188 28.0625 84.867188 Z M 23.109375 75.429688 C 23 75.515625 22.847656 75.492188 22.765625 75.386719 C 22.683594 75.277344 22.703125 75.121094 22.8125 75.042969 C 22.8125 75.042969 24.03125 74.011719 25.167969 73.257812 C 25.28125 73.183594 25.433594 73.214844 25.507812 73.328125 C 25.582031 73.441406 25.550781 73.59375 25.4375 73.667969 C 24.316406 74.414062 23.109375 75.429688 23.109375 75.429688 Z M 49.9375 76.714844 C 49.855469 76.832031 49.761719 76.953125 49.65625 77.078125 C 49.824219 77.058594 50.007812 77.046875 50.195312 77.0625 C 50.097656 76.925781 50.007812 76.808594 49.9375 76.714844 Z M 49.039062 77.738281 C 48.902344 77.875 48.753906 78.015625 48.597656 78.15625 C 47.5625 79.101562 46.214844 80.179688 45.09375 81.285156 C 43.230469 83.128906 41.160156 84.636719 38.996094 86.902344 C 36.820312 89.179688 35.535156 90.273438 35.535156 90.273438 C 35.429688 90.363281 35.277344 90.351562 35.1875 90.246094 C 35.101562 90.144531 35.113281 89.988281 35.21875 89.898438 C 35.21875 89.898438 36.488281 88.816406 38.644531 86.5625 C 40.8125 84.292969 42.882812 82.78125 44.753906 80.933594 C 45.875 79.824219 47.230469 78.746094 48.265625 77.792969 C 48.882812 77.226562 49.386719 76.714844 49.644531 76.261719 C 49.4375 75.832031 48.757812 74.300781 48.8125 73.308594 C 48.820312 73.171875 48.933594 73.070312 49.070312 73.078125 C 49.203125 73.085938 49.308594 73.199219 49.300781 73.335938 C 49.25 74.351562 50.050781 75.976562 50.128906 76.144531 C 50.214844 76.265625 50.972656 77.355469 52.453125 78.867188 C 52.726562 79.148438 53 79.441406 53.273438 79.75 C 53.292969 79.761719 53.308594 79.777344 53.320312 79.789062 C 53.355469 79.828125 53.382812 79.863281 53.410156 79.90625 C 54.675781 81.347656 55.917969 83.03125 57.199219 84.738281 C 58.785156 86.855469 60.441406 88.503906 61.292969 89.335938 C 61.386719 89.433594 61.390625 89.589844 61.296875 89.683594 C 61.203125 89.78125 61.050781 89.785156 60.949219 89.6875 C 60.089844 88.84375 58.410156 87.175781 56.808594 85.035156 C 55.714844 83.574219 54.648438 82.132812 53.574219 80.847656 C 53.484375 81.40625 53.136719 82.160156 52.507812 83.109375 C 52.003906 83.871094 51.277344 84.828125 50.480469 85.828125 C 50.570312 85.785156 50.660156 85.742188 50.757812 85.707031 C 51.382812 85.457031 52.109375 85.359375 52.804688 85.707031 C 54.523438 86.558594 55.117188 87.972656 54.488281 89.421875 C 53.890625 90.796875 52.941406 91.824219 52.941406 91.824219 C 52.851562 91.921875 52.695312 91.925781 52.59375 91.835938 C 52.496094 91.746094 52.492188 91.589844 52.582031 91.488281 C 52.582031 91.488281 53.480469 90.519531 54.039062 89.226562 C 54.566406 88.015625 54.023438 86.855469 52.589844 86.144531 C 52.027344 85.867188 51.441406 85.960938 50.9375 86.160156 C 50.136719 86.476562 49.542969 87.074219 49.542969 87.074219 C 49.503906 87.113281 49.457031 87.136719 49.40625 87.144531 C 48.917969 87.734375 48.421875 88.320312 47.960938 88.863281 C 46.375 90.71875 43.9375 93.464844 43.9375 93.464844 C 43.847656 93.566406 43.691406 93.578125 43.59375 93.488281 C 43.492188 93.398438 43.480469 93.242188 43.570312 93.140625 C 43.570312 93.140625 46.003906 90.394531 47.589844 88.546875 C 49.167969 86.699219 51.089844 84.367188 52.101562 82.839844 C 52.589844 82.101562 52.902344 81.496094 53.035156 81.015625 C 53.132812 80.667969 53.136719 80.398438 53.019531 80.203125 C 52.710938 79.855469 52.410156 79.523438 52.101562 79.214844 C 51.535156 78.636719 51.070312 78.117188 50.710938 77.691406 C 50.699219 77.6875 50.6875 77.683594 50.675781 77.679688 C 49.957031 77.339844 49.058594 77.734375 49.058594 77.734375 C 49.050781 77.734375 49.042969 77.738281 49.039062 77.738281 Z M 49.039062 77.738281 " fill-opacity="1" fill-rule="evenodd"/></svg>